# xmcd
#
# Track frame offsets:
# 150
# 11648
# 28224
# 40549
# 58099
# 73098
# 88099
# 100163
# 115088
# 129376
# 146177
# 172749
# 184374
# 209010
# 221760
# 244349
# 261525
# 277261
# 289637
# 307732
#
# Disc length: 4284 seconds
#
#
# Revision: 0
# Processed by: cddbd v1.5.1PL2 Copyright (c) Steve Scherf et al.
# Submitted via: FreeRIP 2.945 
#
DISCID=3a10ba14
DTITLE=Vários intérpretes - 20 mais Bob Dylan's and Cat Stevens
DYEAR=1900
DGENRE=Pop
TTITLE0=Knocking On A Heavens Door - Bob
TTITLE1=Father And Son - Cat
TTITLE2=Blowin in the Wind - Bob
TTITLE3=Where do the Children Play - Cat
TTITLE4=Lady Lady Lay - Bob
TTITLE5=Wild World - Cat
TTITLE6=If not for you - Bob
TTITLE7=Morning has Broken - Cat
TTITLE8=I want you - Bob
TTITLE9=Lady D'Arbanville - Cat
TTITLE10=Like a Rolling Stones - Bob
TTITLE11=Oh very young - Cat
TTITLE12=Mr. Tambourine Man - Bob
TTITLE13=Moonshadow - Cat
TTITLE14=Just Like a Woman - Bob
TTITLE15=Hard Headed Woman - Bob
TTITLE16=It Ain't me babe - Bob
TTITLE17=Remember the Days of the Old - Cat
TTITLE18=Knocking on Heavens Door reggae - Bob
TTITLE19=The First Cut is the Deepest - Cat
EXTD=
EXTT0=
EXTT1=
EXTT2=
EXTT3=
EXTT4=
EXTT5=
EXTT6=
EXTT7=
EXTT8=
EXTT9=
EXTT10=
EXTT11=
EXTT12=
EXTT13=
EXTT14=
EXTT15=
EXTT16=
EXTT17=
EXTT18=
EXTT19=
PLAYORDER=
